<svg width="1080" height="1080" viewBox="0 0 1080 1080" fill="none" xmlns="http://www.w3.org/2000/svg">
<path d="M776.983 60.338C732.05 64.0714 695.117 74.738 656.317 95.138C580.583 135.005 517.25 205.538 473.517 298.605C469.517 307.138 465.783 314.071 465.25 314.071C464.717 314.071 460.717 311.671 456.583 308.871C437.383 295.938 418.717 289.138 398.05 287.805C325.783 283.138 268.45 352.205 286.183 422.338C291.517 443.138 300.583 459.671 314.717 473.938C329.25 488.471 344.183 497.005 364.317 502.205C401.783 511.805 439.517 501.938 466.45 475.805C483.383 459.405 491.917 443.671 498.983 416.738C513.917 359.271 538.317 304.071 568.05 260.738C601.517 211.938 640.983 177.005 689.65 152.871C716.983 139.405 740.85 132.071 770.983 128.071C812.05 122.471 855.65 130.605 884.45 149.138C892.717 154.471 907.383 167.138 913.517 174.205C921.117 183.138 932.183 202.205 937.917 216.471L943.65 230.738L943.517 249.405C943.383 280.605 935.917 304.871 917.917 332.071C909.65 344.471 878.983 375.138 862.05 387.938C841.383 403.271 817.383 418.605 802.183 425.938C777.783 437.805 740.05 452.071 710.05 460.738C701.783 463.138 699.783 464.338 694.317 470.471C681.783 484.338 680.45 496.338 690.583 507.405C697.117 514.871 702.45 517.671 711.65 518.738C727.383 520.605 767.917 527.538 782.317 530.871C811.117 537.538 842.45 548.338 862.717 558.605C887.917 571.271 914.85 594.071 926.717 612.605C942.717 637.405 946.85 667.671 938.317 699.005C925.783 745.405 887.517 781.538 830.45 800.738L815.65 805.671L815.517 794.871C815.383 783.138 814.317 777.138 807.65 750.071C795.65 701.671 785.517 675.671 765.383 642.071C750.05 616.605 732.583 594.205 711.117 572.738C687.383 549.005 670.85 536.471 617.65 501.805C591.917 485.005 558.583 467.671 540.983 461.938C521.783 455.671 493.517 460.338 488.45 470.605C484.317 479.138 482.983 547.005 486.317 580.738C494.45 662.471 520.717 725.938 569.783 782.738C614.05 833.938 677.117 866.871 748.05 876.071C751.783 876.605 754.983 877.138 754.983 877.405C754.983 877.538 755.517 880.738 756.317 884.471C758.983 898.738 762.983 935.671 764.183 956.738C765.517 979.405 764.45 1001.67 761.517 1013.14C760.717 1016.6 760.317 1019.8 760.583 1020.2C761.783 1021.27 779.783 1001.4 784.85 993.538C803.383 964.471 815.383 921.005 817.917 873.405L818.317 866.738L828.983 865.805C880.05 861.138 930.583 828.738 974.85 772.071C986.183 757.671 991.117 748.205 997.65 728.738C1009.65 693.005 1011.38 652.205 1002.32 619.805C997.517 603.005 984.85 578.205 974.583 566.071C950.317 537.271 898.717 503.138 848.05 482.605C844.45 481.271 841.65 479.805 841.783 479.405C841.783 479.005 844.317 477.405 847.517 475.938C858.583 470.471 880.717 455.938 899.383 441.805C948.983 404.738 979.383 368.205 993.783 328.605C1000.32 310.738 1005.52 287.005 1007.12 268.205C1014.58 176.205 969.25 107.405 879.65 74.8714C849.25 63.6714 807.117 57.8047 776.983 60.338ZM417.383 355.938C450.583 373.538 457.117 417.938 430.183 443.405C408.05 464.338 374.583 464.205 353.383 443.005C324.983 414.605 335.383 367.938 373.65 352.471C378.45 350.605 382.583 350.071 393.65 350.471C406.983 350.871 408.05 351.005 417.383 355.938ZM566.317 547.405C604.183 567.671 635.25 591.538 664.45 622.871C700.05 661.271 725.117 706.738 737.783 755.405C741.383 769.538 746.983 801.405 746.983 808.338C746.983 811.138 746.983 811.138 738.05 809.138C724.983 806.338 703.917 799.138 691.917 793.538C617.917 758.871 570.85 692.338 556.45 602.605C553.65 584.738 550.983 558.205 550.983 547.005C550.983 540.871 551.117 540.605 554.05 541.538C555.65 541.938 561.25 544.605 566.317 547.405Z" fill="#006FEE"/>
<path d="M552.435 679.754C629.874 685.518 645.743 664.159 671.935 602.254" stroke="#006FEE" stroke-width="70" stroke-linecap="round"/>
<path d="M609.435 768.754C678.935 759.254 696.935 740.254 728.935 691.254" stroke="#006FEE" stroke-width="70" stroke-linecap="round"/>
<path d="M420.935 72.506C420.935 72.506 200.798 25.1258 143.788 113.022C78.7769 213.25 333.857 262.47 299.811 375.409C269.911 474.595 71.9346 529.754 71.9346 529.754" stroke="#006FEE" stroke-width="58" stroke-linecap="round"/>
</svg>
